<?xml version="1.0" standalone="no"?><svg xmlns="http://www.w3.org/2000/svg" viewBox="0 0 1440 320"><path fill="#FFBAC8" fill-opacity="1" d="M0,32L20,64C40,96,80,160,120,186.7C160,213,200,203,240,186.7C280,171,320,149,360,122.7C400,96,440,64,480,69.3C520,75,560,117,600,160C640,203,680,245,720,245.3C760,245,800,203,840,176C880,149,920,139,960,160C1000,181,1040,235,1080,256C1120,277,1160,267,1200,234.7C1240,203,1280,149,1320,160C1360,171,1400,245,1420,282.7L1440,320L1440,0L1420,0C1400,0,1360,0,1320,0C1280,0,1240,0,1200,0C1160,0,1120,0,1080,0C1040,0,1000,0,960,0C920,0,880,0,840,0C800,0,760,0,720,0C680,0,640,0,600,0C560,0,520,0,480,0C440,0,400,0,360,0C320,0,280,0,240,0C200,0,160,0,120,0C80,0,40,0,20,0L0,0Z"></path></svg>